<svg xmlns="http://www.w3.org/2000/svg" version="1.1" xmlns:xlink="http://www.w3.org/1999/xlink" width="200" height="200"><svg xmlns="http://www.w3.org/2000/svg" version="1.1" xmlns:xlink="http://www.w3.org/1999/xlink" viewBox="0 0 200 200"><rect width="200" height="200" fill="url('#gradient')"></rect><defs><linearGradient id="SvgjsLinearGradient1001" gradientTransform="rotate(45 0.5 0.5)"><stop offset="0%" stop-color="#3c3d3e"></stop><stop offset="100%" stop-color="#b5b4b5"></stop></linearGradient></defs><g><g fill="#c52727" transform="matrix(8.549165120593692,0,0,8.549165120593692,6.986179073799079,159.9313643735061)" stroke="#f71412" stroke-width="0.2"><path d="M6.74-4.46L6.74-14.22L10.16-14.22L10.16-4.46Q10.16-3.11 9.53-2.04Q8.90-0.98 7.77-0.39Q6.64 0.20 5.25 0.20L5.25 0.20Q2.93 0.20 1.64-0.98Q0.35-2.15 0.35-4.30L0.35-4.30L3.79-4.30Q3.79-3.32 4.13-2.88Q4.46-2.44 5.25-2.44L5.25-2.44Q5.97-2.44 6.35-2.97Q6.74-3.51 6.74-4.46L6.74-4.46ZM21.41 0L18.12 0Q17.94-0.32 17.80-0.95L17.80-0.95Q16.89 0.20 15.26 0.20L15.26 0.20Q13.77 0.20 12.72-0.71Q11.68-1.61 11.68-2.98L11.68-2.98Q11.68-4.70 12.95-5.58Q14.22-6.46 16.64-6.46L16.64-6.46L17.66-6.46L17.66-7.01Q17.66-8.47 16.40-8.47L16.40-8.47Q15.22-8.47 15.22-7.31L15.22-7.31L11.93-7.31Q11.93-8.85 13.24-9.80Q14.54-10.76 16.56-10.76Q18.58-10.76 19.76-9.78Q20.93-8.79 20.96-7.07L20.96-7.07L20.96-2.39Q20.98-0.94 21.41-0.17L21.41-0.17L21.41 0ZM16.05-2.15L16.05-2.15Q16.67-2.15 17.08-2.41Q17.48-2.68 17.66-3.01L17.66-3.01L17.66-4.70L16.70-4.70Q14.98-4.70 14.98-3.15L14.98-3.15Q14.98-2.71 15.28-2.43Q15.59-2.15 16.05-2.15Z"></path></g></g></svg><style>@media (prefers-color-scheme: light) { :root { filter: none; } }
@media (prefers-color-scheme: dark) { :root { filter: none; } }
</style></svg>